<?xml version="1.0" encoding="UTF-8"?>
<svg version="1.1" viewBox="0 0 1000 1000" xmlns="http://www.w3.org/2000/svg">
<rect width="1e3" height="1e3" fill="none"/>
<g transform="matrix(.7 0 0 .7 149.58 282.13)">
<svg width="1e3" height="623" data-background-color="#ffffff" viewBox="0 0 396 247" xmlns="http://www.w3.org/2000/svg" xmlns:xlink="http://www.w3.org/1999/xlink">
<g transform="translate(.24 -.1)">
<svg width="395.52" height="247.2" viewBox="0 0 395.52 247.2">
<svg/>
<svg width="395.52" height="247.2" viewBox="0 0 395.52 247.2">
<path d="m183.89 219.06c1.351-15.054 2.215-34.25 2.593-57.589h94.441c-1.506 13.592-3.303 26.759-5.389 39.502-10.451 9.915-20.098 17.23-28.941 21.946-8.843 4.663-14.872 7.878-18.088 9.647-3.216 1.715-8.977 4.395-17.284 8.039-8.307 3.591-13.264 5.788-14.872 6.592-34.3-2.68-63.508-8.709-87.625-18.088 0.536-17.686 1.34-34.032 2.412-49.038 24.921 17.954 49.172 30.95 72.753 38.989zm-6.432-219.06h108.53c0.536 10.183 0.804 25.859 0.804 47.028 0 13.195-0.202 26.095-0.607 38.698h-100.9c-1.469-25.871-4.077-54.447-7.824-85.726z" fill="#77d4fc" font-family="none" font-size="none" font-weight="none" stroke-dasharray="" stroke-miterlimit="10" text-anchor="none" style="mix-blend-mode:normal" data-fill-palette-color="tertiary" xmlns="http://www.w3.org/2000/svg"/>
<g transform="translate(0 92.329)">
<svg width="395.52" height="62.541" viewBox="0 0 395.52 62.541372181601986">
<svg width="395.52" height="62.541" viewBox="0 0 395.52 62.541372181601986">
<svg width="395.52" height="62.541" viewBox="0 0 490.8646935631807 77.61769693300691">
<g transform="translate(0 10.727)">
<svg width="395.52" height="56.163" viewBox="0 0 395.52 56.16331181838415">
<svg width="395.52" height="56.163" viewBox="0 0 395.52 56.16331181838415">
<svg width="395.52" height="56.163" viewBox="0 0 395.52 56.16331181838415">
<g>
<svg width="395.52" height="56.163" data-palette-color="#77d4fc" viewBox="0.25 -26.149999618530273 224.6300048828125 31.899999618530273">
<path class="undefined-text-0" d="m9.6 2.25q0.35-3.9 0.35-10.78 0-6.87-1.15-16.47h13.5q0.1 1.9 0.1 5.85 0 10.6-1.4 19.15-1.95 1.85-3.6 2.73-1.65 0.87-2.25 1.2-0.6 0.32-2.15 1-1.55 0.67-1.85 0.82-6.4-0.5-10.9-2.25 0.1-3.3 0.3-6.1 4.65 3.35 9.05 4.85zm23.1-2.4q-4.45-5.7-4.45-11.7t5-10.15 12.8-4.15q4.15 0 8.25 1.25 3.6 4.55 3.6 9.75 0 6.55-5.35 11.4t-12.95 4.85q-3.25 0-6.9-1.25zm7.6-21.65q-1.75 3-1.75 7.05t1.77 7.47q1.78 3.43 4.88 4.93 2.35-3 2.35-6.95t-1.93-7.35q-1.92-3.4-5.32-5.15zm35.25 18.55q3.39 0 5.54-0.55-0.9-5.55-5.09-8.25-0.45 4.45-0.45 8.8zm-12.6-11.75q0-5.25 0.95-10h27.75q-2.25 7-8.6 10.15 5.75 2.05 9.2 5.7-0.45 4.65-2.16 9.15h-25.15q-1.99-6.95-1.99-15zm13.44-0.5q2.45-0.65 4.55-2.25 2.11-1.6 3-3.95-4 0-6.5 0.25-0.6 2.9-1.05 5.95zm31.5 11.65q2.35 0.55 4.5 0.55t3.43-0.98q1.27-0.97 1.87-3.37l6 0.2q-0.75 4.5-2 7.45h-24.55q-0.95-6.4-0.95-13.25t0.7-11.75h14.4q-3.3 12.65-3.4 21.15zm22.55 3.7q-4.45-5.7-4.45-11.7t5-10.15 12.8-4.15q4.15 0 8.25 1.25 3.6 4.55 3.6 9.75 0 6.55-5.35 11.4t-12.95 4.85q-3.25 0-6.9-1.25zm7.6-21.65q-1.75 3-1.75 7.05t1.77 7.47q1.78 3.43 4.88 4.93 2.35-3 2.35-6.95t-1.93-7.35q-1.92-3.4-5.32-5.15zm39.95 19.35 0.05-2.1q0-3.55-0.6-8.45h10.8q0 7.1-0.7 13-7.75 1.1-16.05 1.1h-3.2q-4.55-1.95-7.1-5.73-2.55-3.77-2.55-8.02 0-5.65 4.57-9.58 4.58-3.92 13.38-3.92 4.6 0 10.25 1.25-0.85 3.4-1.95 6-3.05 0.2-6.55 0.3 0.55-1.7 0.8-3.35-1.6-0.3-3.28-0.3-1.67 0-3.97 0.55-0.8 3.4-0.8 6.15 0 4.15 1.87 7.77 1.88 3.63 5.03 5.33zm44.04-13.85-0.04 1.7q-4 2.15-10 3.35 4.29 1.15 8.29 1.15h1.06q2.75 4.05 3.54 10.1h-12.94q-0.5-3.5-2.03-6.03-1.53-2.52-3.72-3.42-0.06 0.85-0.06 3.4t0.31 6.05h-10.91q-1.44-7.25-1.44-13.48 0-6.22 0.69-11.52h26.1q1.15 5.05 1.15 8.7zm-14.79-5.35q-0.61 4.4-0.9 8.65 2.75-0.4 4.5-1.95-0.96-3.35-3.6-6.7z" fill="#77d4fc" data-fill-palette-color="primary"/>
</svg>
</g>
</svg>
</svg>
</svg>
</g>
<g transform="translate(403.72)">
<svg width="87.149" height="77.618" viewBox="0 0 87.14911844939486 77.61769693300691">
<svg class="icon-icon-0" width="87.149" height="77.618" enable-background="new 0 0 100 100" data-fill-palette-color="accent" version="1.1" viewBox="3.6009979248046875 8.677000045776367 92.79601287841797 82.6469955444336" xml:space="preserve" xmlns="http://www.w3.org/2000/svg" xmlns:xlink="http://www.w3.org/1999/xlink"><g fill="#4b91f1" data-fill-palette-color="accent"><path d="M96.349 27.217c0-2.744-2.232-4.976-4.976-4.976H65.445v-6.692c0-3.789-3.083-6.872-6.872-6.872H41.427c-3.789 0-6.872 3.083-6.872 6.872v6.692H8.629c-2.745 0-4.978 2.231-4.978 4.971l-0.05 23.67c-0.001 0.768 0.437 1.469 1.127 1.804 1.056 0.512 2.143 0.985 3.235 1.454v32.208c0 2.743 2.232 4.976 4.976 4.976h74.12c2.744 0 4.976-2.232 4.976-4.976v-32.69c1.119-0.517 2.221-1.052 3.295-1.618 0.658-0.347 1.069-1.03 1.067-1.773L96.349 27.217zM38.555 15.549c0-1.584 1.289-2.872 2.872-2.872h17.146c1.557 0 2.872 1.315 2.872 2.872v6.692h-22.89V15.549zM88.036 86.348c0 0.52-0.456 0.976-0.976 0.976H12.94c-0.529 0-0.976-0.447-0.976-0.976V55.727c8.706 3.197 18.433 5.115 29.04 5.703v2.775c0 2.012 1.637 3.649 3.649 3.649h10.695c2.011 0 3.647-1.638 3.647-3.649V61.4c10.745-0.653 20.474-2.679 29.04-6.039V86.348zM45.004 63.854v-6.636h9.992v6.636H45.004zM58.996 57.378V56.87c0-2.014-1.636-3.651-3.647-3.651H44.653c-2.012 0-3.649 1.638-3.649 3.651v0.551c-12.528-0.718-23.759-3.329-33.399-7.799l0.047-22.405c0-0.529 0.448-0.976 0.978-0.976h82.744c0.529 0 0.976 0.446 0.976 0.979l0.046 21.831C82.987 53.791 71.754 56.576 58.996 57.378z" fill="#4b91f1" data-fill-palette-color="accent"/></g></svg>
</svg>
</g>
</svg>
</svg>
</svg>
</g>
</svg>
</svg>
<rect width="395.52" height="247.2" fill="none" visibility="hidden"/>
</g>
</svg>
</g>
</svg>
